# Tiled2Unity generated file. Do not modify by hand.
# Wavefront file for 'Level1_mesh_0110.obj'

# Vertices (Count = 108)
v -333.3 -141.4 0
v -338.35 -141.4 0
v -338.35 -134.59 0
v -333.3 -134.59 0
v -338.35 -141.4 0
v -343.4 -141.4 0
v -343.4 -134.59 0
v -338.35 -134.59 0
v -343.4 -141.4 0
v -348.45 -141.4 0
v -348.45 -134.59 0
v -343.4 -134.59 0
v -348.45 -141.4 0
v -353.5 -141.4 0
v -353.5 -134.59 0
v -348.45 -134.59 0
v -353.5 -141.4 0
v -358.55 -141.4 0
v -358.55 -134.59 0
v -353.5 -134.59 0
v -358.55 -141.4 0
v -363.6 -141.4 0
v -363.6 -134.59 0
v -358.55 -134.59 0
v -363.6 -141.4 0
v -368.65 -141.4 0
v -368.65 -134.59 0
v -363.6 -134.59 0
v -101 -227.25 0
v -106.05 -227.25 0
v -106.05 -220.44 0
v -101 -220.44 0
v -106.05 -227.25 0
v -111.1 -227.25 0
v -111.1 -220.44 0
v -106.05 -220.44 0
v -111.1 -227.25 0
v -116.15 -227.25 0
v -116.15 -220.44 0
v -111.1 -220.44 0
v -116.15 -227.25 0
v -121.2 -227.25 0
v -121.2 -220.44 0
v -116.15 -220.44 0
v -121.2 -227.25 0
v -126.25 -227.25 0
v -126.25 -220.44 0
v -121.2 -220.44 0
v -126.25 -227.25 0
v -131.3 -227.25 0
v -131.3 -220.44 0
v -126.25 -220.44 0
v -131.3 -227.25 0
v -136.35 -227.25 0
v -136.35 -220.44 0
v -131.3 -220.44 0
v -136.35 -227.25 0
v -141.4 -227.25 0
v -141.4 -220.44 0
v -136.35 -220.44 0
v -292.9 -227.25 0
v -297.95 -227.25 0
v -297.95 -220.44 0
v -292.9 -220.44 0
v -297.95 -232.3 0
v -303 -232.3 0
v -303 -225.49 0
v -297.95 -225.49 0
v -303 -237.35 0
v -308.05 -237.35 0
v -308.05 -230.54 0
v -303 -230.54 0
v -308.05 -242.4 0
v -313.1 -242.4 0
v -313.1 -235.59 0
v -308.05 -235.59 0
v -313.1 -247.45 0
v -318.15 -247.45 0
v -318.15 -240.64 0
v -313.1 -240.64 0
v -318.15 -252.5 0
v -323.2 -252.5 0
v -323.2 -245.69 0
v -318.15 -245.69 0
v -287.85 -257.55 0
v -292.9 -257.55 0
v -292.9 -250.74 0
v -287.85 -250.74 0
v -292.9 -257.55 0
v -297.95 -257.55 0
v -297.95 -250.74 0
v -292.9 -250.74 0
v -297.95 -257.55 0
v -303 -257.55 0
v -303 -250.74 0
v -297.95 -250.74 0
v -303 -257.55 0
v -308.05 -257.55 0
v -308.05 -250.74 0
v -303 -250.74 0
v -323.2 -257.55 0
v -328.25 -257.55 0
v -328.25 -250.74 0
v -323.2 -250.74 0
v -328.25 -257.55 0
v -333.3 -257.55 0
v -333.3 -250.74 0
v -328.25 -250.74 0

# Texture cooridinates (Count = 4)
vt 0 0
vt 1 0
vt 1 1
vt 0 1

# Normal
vn 0 0 -1

# Mesh description
g Level1_mesh_0110

# Faces
f 1/1/1 2/2/1 3/3/1 4/4/1
f 5/1/1 6/2/1 7/3/1 8/4/1
f 9/1/1 10/2/1 11/3/1 12/4/1
f 13/1/1 14/2/1 15/3/1 16/4/1
f 17/1/1 18/2/1 19/3/1 20/4/1
f 21/1/1 22/2/1 23/3/1 24/4/1
f 25/1/1 26/2/1 27/3/1 28/4/1
f 29/1/1 30/2/1 31/3/1 32/4/1
f 33/1/1 34/2/1 35/3/1 36/4/1
f 37/1/1 38/2/1 39/3/1 40/4/1
f 41/1/1 42/2/1 43/3/1 44/4/1
f 45/1/1 46/2/1 47/3/1 48/4/1
f 49/1/1 50/2/1 51/3/1 52/4/1
f 53/1/1 54/2/1 55/3/1 56/4/1
f 57/1/1 58/2/1 59/3/1 60/4/1
f 61/1/1 62/2/1 63/3/1 64/4/1
f 65/1/1 66/2/1 67/3/1 68/4/1
f 69/1/1 70/2/1 71/3/1 72/4/1
f 73/1/1 74/2/1 75/3/1 76/4/1
f 77/1/1 78/2/1 79/3/1 80/4/1
f 81/1/1 82/2/1 83/3/1 84/4/1
f 85/1/1 86/2/1 87/3/1 88/4/1
f 89/1/1 90/2/1 91/3/1 92/4/1
f 93/1/1 94/2/1 95/3/1 96/4/1
f 97/1/1 98/2/1 99/3/1 100/4/1
f 101/1/1 102/2/1 103/3/1 104/4/1
f 105/1/1 106/2/1 107/3/1 108/4/1

