# Tiled2Unity generated file. Do not modify by hand.
# Wavefront file for 'Level1_mesh_0016.obj'

# Vertices (Count = 16)
v -484.8 -20.2 0
v -489.27 -20.2 0
v -489.27 -14.45 0
v -484.8 -14.45 0
v -166.65 -30.3 0
v -171.12 -30.3 0
v -171.12 -24.55 0
v -166.65 -24.55 0
v -101 -171.7 0
v -105.47 -171.7 0
v -105.47 -165.95 0
v -101 -165.95 0
v -257.55 -181.8 0
v -262.02 -181.8 0
v -262.02 -176.05 0
v -257.55 -176.05 0

# Texture cooridinates (Count = 4)
vt 0 0
vt 1 0
vt 1 1
vt 0 1

# Normal
vn 0 0 -1

# Mesh description
g Level1_mesh_0016

# Faces
f 1/1/1 2/2/1 3/3/1 4/4/1
f 5/1/1 6/2/1 7/3/1 8/4/1
f 9/1/1 10/2/1 11/3/1 12/4/1
f 13/1/1 14/2/1 15/3/1 16/4/1

