# Tiled2Unity generated file. Do not modify by hand.
# Wavefront file for 'Level1_mesh_0033.obj'

# Vertices (Count = 16)
v -323.2 -15.15 0
v -327.92 -15.15 0
v -327.92 -12.5 0
v -323.2 -12.5 0
v -191.9 -101 0
v -196.62 -101 0
v -196.62 -98.35 0
v -191.9 -98.35 0
v -10.1 -272.7 0
v -14.82 -272.7 0
v -14.82 -270.05 0
v -10.1 -270.05 0
v -232.3 -272.7 0
v -237.02 -272.7 0
v -237.02 -270.05 0
v -232.3 -270.05 0

# Texture cooridinates (Count = 4)
vt 0 0
vt 1 0
vt 1 1
vt 0 1

# Normal
vn 0 0 -1

# Mesh description
g Level1_mesh_0033

# Faces
f 1/1/1 2/2/1 3/3/1 4/4/1
f 5/1/1 6/2/1 7/3/1 8/4/1
f 9/1/1 10/2/1 11/3/1 12/4/1
f 13/1/1 14/2/1 15/3/1 16/4/1

