# Tiled2Unity generated file. Do not modify by hand.
# Wavefront file for 'Level1_mesh_0041.obj'

# Vertices (Count = 20)
v -297.95 -60.6 0
v -302.42 -60.6 0
v -302.42 -54.85 0
v -297.95 -54.85 0
v -136.35 -101 0
v -140.82 -101 0
v -140.82 -95.25 0
v -136.35 -95.25 0
v -186.85 -101 0
v -191.32 -101 0
v -191.32 -95.25 0
v -186.85 -95.25 0
v -454.5 -176.75 0
v -458.97 -176.75 0
v -458.97 -171 0
v -454.5 -171 0
v -5.05 -272.7 0
v -9.52 -272.7 0
v -9.52 -266.95 0
v -5.05 -266.95 0

# Texture cooridinates (Count = 4)
vt 0 0
vt 1 0
vt 1 1
vt 0 1

# Normal
vn 0 0 -1

# Mesh description
g Level1_mesh_0041

# Faces
f 1/1/1 2/2/1 3/3/1 4/4/1
f 5/1/1 6/2/1 7/3/1 8/4/1
f 9/1/1 10/2/1 11/3/1 12/4/1
f 13/1/1 14/2/1 15/3/1 16/4/1
f 17/1/1 18/2/1 19/3/1 20/4/1

