# Tiled2Unity generated file. Do not modify by hand.
# Wavefront file for 'Level1_mesh_0043.obj'

# Vertices (Count = 16)
v -313.1 -60.6 0
v -317.5 -60.6 0
v -317.5 -54.61 0
v -313.1 -54.61 0
v -141.4 -101 0
v -145.8 -101 0
v -145.8 -95.00999 0
v -141.4 -95.00999 0
v -196.95 -101 0
v -201.35 -101 0
v -201.35 -95.00999 0
v -196.95 -95.00999 0
v -247.45 -121.2 0
v -251.85 -121.2 0
v -251.85 -115.21 0
v -247.45 -115.21 0

# Texture cooridinates (Count = 4)
vt 0 0
vt 1 0
vt 1 1
vt 0 1

# Normal
vn 0 0 -1

# Mesh description
g Level1_mesh_0043

# Faces
f 1/1/1 2/2/1 3/3/1 4/4/1
f 5/1/1 6/2/1 7/3/1 8/4/1
f 9/1/1 10/2/1 11/3/1 12/4/1
f 13/1/1 14/2/1 15/3/1 16/4/1

