# Tiled2Unity generated file. Do not modify by hand.
# Wavefront file for 'Level1_mesh_0094.obj'

# Vertices (Count = 168)
v -358.55 -20.2 0
v -363.6 -20.2 0
v -363.6 -13.39 0
v -358.55 -13.39 0
v -469.65 -25.25 0
v -474.7 -25.25 0
v -474.7 -18.44 0
v -469.65 -18.44 0
v -499.95 -25.25 0
v -505 -25.25 0
v -505 -18.44 0
v -499.95 -18.44 0
v -282.8 -30.3 0
v -287.85 -30.3 0
v -287.85 -23.49 0
v -282.8 -23.49 0
v 0 -35.35 0
v -5.05 -35.35 0
v -5.05 -28.54 0
v 0 -28.54 0
v -191.9 -40.4 0
v -196.95 -40.4 0
v -196.95 -33.59 0
v -191.9 -33.59 0
v -196.95 -45.45 0
v -202 -45.45 0
v -202 -38.64 0
v -196.95 -38.64 0
v -202 -50.5 0
v -207.05 -50.5 0
v -207.05 -43.69 0
v -202 -43.69 0
v -207.05 -55.55 0
v -212.1 -55.55 0
v -212.1 -48.74 0
v -207.05 -48.74 0
v -282.8 -55.55 0
v -287.85 -55.55 0
v -287.85 -48.74 0
v -282.8 -48.74 0
v -333.3 -65.65 0
v -338.35 -65.65 0
v -338.35 -58.84 0
v -333.3 -58.84 0
v -40.4 -80.8 0
v -45.45 -80.8 0
v -45.45 -73.99 0
v -40.4 -73.99 0
v -80.8 -80.8 0
v -85.85 -80.8 0
v -85.85 -73.99 0
v -80.8 -73.99 0
v -196.95 -80.8 0
v -202 -80.8 0
v -202 -73.99 0
v -196.95 -73.99 0
v -459.55 -80.8 0
v -464.6 -80.8 0
v -464.6 -73.99 0
v -459.55 -73.99 0
v -484.8 -80.8 0
v -489.85 -80.8 0
v -489.85 -73.99 0
v -484.8 -73.99 0
v -151.5 -106.05 0
v -156.55 -106.05 0
v -156.55 -99.24 0
v -151.5 -99.24 0
v -474.7 -106.05 0
v -479.75 -106.05 0
v -479.75 -99.24 0
v -474.7 -99.24 0
v -479.75 -111.1 0
v -484.8 -111.1 0
v -484.8 -104.29 0
v -479.75 -104.29 0
v -484.8 -116.15 0
v -489.85 -116.15 0
v -489.85 -109.34 0
v -484.8 -109.34 0
v -363.6 -121.2 0
v -368.65 -121.2 0
v -368.65 -114.39 0
v -363.6 -114.39 0
v -499.95 -121.2 0
v -505 -121.2 0
v -505 -114.39 0
v -499.95 -114.39 0
v -292.9 -126.25 0
v -297.95 -126.25 0
v -297.95 -119.44 0
v -292.9 -119.44 0
v -35.35 -131.3 0
v -40.4 -131.3 0
v -40.4 -124.49 0
v -35.35 -124.49 0
v -464.6 -141.4 0
v -469.65 -141.4 0
v -469.65 -134.59 0
v -464.6 -134.59 0
v -222.2 -166.65 0
v -227.25 -166.65 0
v -227.25 -159.84 0
v -222.2 -159.84 0
v -80.8 -171.7 0
v -85.85 -171.7 0
v -85.85 -164.89 0
v -80.8 -164.89 0
v -484.8 -181.8 0
v -489.85 -181.8 0
v -489.85 -174.99 0
v -484.8 -174.99 0
v -277.75 -186.85 0
v -282.8 -186.85 0
v -282.8 -180.04 0
v -277.75 -180.04 0
v -116.15 -191.9 0
v -121.2 -191.9 0
v -121.2 -185.09 0
v -116.15 -185.09 0
v -166.65 -227.25 0
v -171.7 -227.25 0
v -171.7 -220.44 0
v -166.65 -220.44 0
v -212.1 -227.25 0
v -217.15 -227.25 0
v -217.15 -220.44 0
v -212.1 -220.44 0
v -297.95 -227.25 0
v -303 -227.25 0
v -303 -220.44 0
v -297.95 -220.44 0
v -303 -232.3 0
v -308.05 -232.3 0
v -308.05 -225.49 0
v -303 -225.49 0
v -308.05 -237.35 0
v -313.1 -237.35 0
v -313.1 -230.54 0
v -308.05 -230.54 0
v -313.1 -242.4 0
v -318.15 -242.4 0
v -318.15 -235.59 0
v -313.1 -235.59 0
v -318.15 -247.45 0
v -323.2 -247.45 0
v -323.2 -240.64 0
v -318.15 -240.64 0
v -212.1 -252.5 0
v -217.15 -252.5 0
v -217.15 -245.69 0
v -212.1 -245.69 0
v -323.2 -252.5 0
v -328.25 -252.5 0
v -328.25 -245.69 0
v -323.2 -245.69 0
v -419.15 -257.55 0
v -424.2 -257.55 0
v -424.2 -250.74 0
v -419.15 -250.74 0
v -499.95 -257.55 0
v -505 -257.55 0
v -505 -250.74 0
v -499.95 -250.74 0
v -15.15 -277.75 0
v -20.2 -277.75 0
v -20.2 -270.94 0
v -15.15 -270.94 0

# Texture cooridinates (Count = 4)
vt 0 0
vt 1 0
vt 1 1
vt 0 1

# Normal
vn 0 0 -1

# Mesh description
g Level1_mesh_0094

# Faces
f 1/1/1 2/2/1 3/3/1 4/4/1
f 5/1/1 6/2/1 7/3/1 8/4/1
f 9/1/1 10/2/1 11/3/1 12/4/1
f 13/1/1 14/2/1 15/3/1 16/4/1
f 17/1/1 18/2/1 19/3/1 20/4/1
f 21/1/1 22/2/1 23/3/1 24/4/1
f 25/1/1 26/2/1 27/3/1 28/4/1
f 29/1/1 30/2/1 31/3/1 32/4/1
f 33/1/1 34/2/1 35/3/1 36/4/1
f 37/1/1 38/2/1 39/3/1 40/4/1
f 41/1/1 42/2/1 43/3/1 44/4/1
f 45/1/1 46/2/1 47/3/1 48/4/1
f 49/1/1 50/2/1 51/3/1 52/4/1
f 53/1/1 54/2/1 55/3/1 56/4/1
f 57/1/1 58/2/1 59/3/1 60/4/1
f 61/1/1 62/2/1 63/3/1 64/4/1
f 65/1/1 66/2/1 67/3/1 68/4/1
f 69/1/1 70/2/1 71/3/1 72/4/1
f 73/1/1 74/2/1 75/3/1 76/4/1
f 77/1/1 78/2/1 79/3/1 80/4/1
f 81/1/1 82/2/1 83/3/1 84/4/1
f 85/1/1 86/2/1 87/3/1 88/4/1
f 89/1/1 90/2/1 91/3/1 92/4/1
f 93/1/1 94/2/1 95/3/1 96/4/1
f 97/1/1 98/2/1 99/3/1 100/4/1
f 101/1/1 102/2/1 103/3/1 104/4/1
f 105/1/1 106/2/1 107/3/1 108/4/1
f 109/1/1 110/2/1 111/3/1 112/4/1
f 113/1/1 114/2/1 115/3/1 116/4/1
f 117/1/1 118/2/1 119/3/1 120/4/1
f 121/1/1 122/2/1 123/3/1 124/4/1
f 125/1/1 126/2/1 127/3/1 128/4/1
f 129/1/1 130/2/1 131/3/1 132/4/1
f 133/1/1 134/2/1 135/3/1 136/4/1
f 137/1/1 138/2/1 139/3/1 140/4/1
f 141/1/1 142/2/1 143/3/1 144/4/1
f 145/1/1 146/2/1 147/3/1 148/4/1
f 149/1/1 150/2/1 151/3/1 152/4/1
f 153/1/1 154/2/1 155/3/1 156/4/1
f 157/1/1 158/2/1 159/3/1 160/4/1
f 161/1/1 162/2/1 163/3/1 164/4/1
f 165/1/1 166/2/1 167/3/1 168/4/1

