# Tiled2Unity generated file. Do not modify by hand.
# Wavefront file for 'Level1_mesh_0112.obj'

# Vertices (Count = 48)
v -80.8 -156.55 0
v -85.85 -156.55 0
v -85.85 -151.5 0
v -80.8 -151.5 0
v -80.8 -161.6 0
v -85.85 -161.6 0
v -85.85 -156.55 0
v -80.8 -156.55 0
v -80.8 -166.65 0
v -85.85 -166.65 0
v -85.85 -161.6 0
v -80.8 -161.6 0
v -80.8 -171.7 0
v -85.85 -171.7 0
v -85.85 -166.65 0
v -80.8 -166.65 0
v -277.75 -212.1 0
v -282.8 -212.1 0
v -282.8 -207.05 0
v -277.75 -207.05 0
v -277.75 -217.15 0
v -282.8 -217.15 0
v -282.8 -212.1 0
v -277.75 -212.1 0
v -277.75 -222.2 0
v -282.8 -222.2 0
v -282.8 -217.15 0
v -277.75 -217.15 0
v -277.75 -227.25 0
v -282.8 -227.25 0
v -282.8 -222.2 0
v -277.75 -222.2 0
v -207.05 -237.35 0
v -212.1 -237.35 0
v -212.1 -232.3 0
v -207.05 -232.3 0
v -207.05 -242.4 0
v -212.1 -242.4 0
v -212.1 -237.35 0
v -207.05 -237.35 0
v -207.05 -247.45 0
v -212.1 -247.45 0
v -212.1 -242.4 0
v -207.05 -242.4 0
v -207.05 -252.5 0
v -212.1 -252.5 0
v -212.1 -247.45 0
v -207.05 -247.45 0

# Texture cooridinates (Count = 4)
vt 0 0
vt 1 0
vt 1 1
vt 0 1

# Normal
vn 0 0 -1

# Mesh description
g Level1_mesh_0112

# Faces
f 1/1/1 2/2/1 3/3/1 4/4/1
f 5/1/1 6/2/1 7/3/1 8/4/1
f 9/1/1 10/2/1 11/3/1 12/4/1
f 13/1/1 14/2/1 15/3/1 16/4/1
f 17/1/1 18/2/1 19/3/1 20/4/1
f 21/1/1 22/2/1 23/3/1 24/4/1
f 25/1/1 26/2/1 27/3/1 28/4/1
f 29/1/1 30/2/1 31/3/1 32/4/1
f 33/1/1 34/2/1 35/3/1 36/4/1
f 37/1/1 38/2/1 39/3/1 40/4/1
f 41/1/1 42/2/1 43/3/1 44/4/1
f 45/1/1 46/2/1 47/3/1 48/4/1

