# Tiled2Unity generated file. Do not modify by hand.
# Wavefront file for 'Level1_mesh_0065.obj'

# Vertices (Count = 16)
v -50.5 -50.5 0
v -54.97 -50.5 0
v -54.97 -44.75 0
v -50.5 -44.75 0
v -454.5 -101 0
v -458.97 -101 0
v -458.97 -95.25 0
v -454.5 -95.25 0
v -323.2 -136.35 0
v -327.67 -136.35 0
v -327.67 -130.6 0
v -323.2 -130.6 0
v -176.75 -186.85 0
v -181.22 -186.85 0
v -181.22 -181.1 0
v -176.75 -181.1 0

# Texture cooridinates (Count = 4)
vt 0 0
vt 1 0
vt 1 1
vt 0 1

# Normal
vn 0 0 -1

# Mesh description
g Level1_mesh_0065

# Faces
f 1/1/1 2/2/1 3/3/1 4/4/1
f 5/1/1 6/2/1 7/3/1 8/4/1
f 9/1/1 10/2/1 11/3/1 12/4/1
f 13/1/1 14/2/1 15/3/1 16/4/1

