# Tiled2Unity generated file. Do not modify by hand.
# Wavefront file for 'Level1_mesh_0042.obj'

# Vertices (Count = 12)
v -303 -60.6 0
v -316.77 -60.6 0
v -316.77 -40.72 0
v -303 -40.72 0
v -449.45 -75.75 0
v -463.22 -75.75 0
v -463.22 -55.87 0
v -449.45 -55.87 0
v -247.45 -181.8 0
v -261.22 -181.8 0
v -261.22 -161.92 0
v -247.45 -161.92 0

# Texture cooridinates (Count = 4)
vt 0 0
vt 1 0
vt 1 1
vt 0 1

# Normal
vn 0 0 -1

# Mesh description
g Level1_mesh_0042

# Faces
f 1/1/1 2/2/1 3/3/1 4/4/1
f 5/1/1 6/2/1 7/3/1 8/4/1
f 9/1/1 10/2/1 11/3/1 12/4/1

