# Tiled2Unity generated file. Do not modify by hand.
# Wavefront file for 'Level1_mesh_0036.obj'

# Vertices (Count = 16)
v -181.8 -35.35 0
v -186.85 -35.35 0
v -186.85 -28.54 0
v -181.8 -28.54 0
v -287.85 -106.05 0
v -292.9 -106.05 0
v -292.9 -99.24 0
v -287.85 -99.24 0
v -202 -156.55 0
v -207.05 -156.55 0
v -207.05 -149.74 0
v -202 -149.74 0
v -111.1 -176.75 0
v -116.15 -176.75 0
v -116.15 -169.94 0
v -111.1 -169.94 0

# Texture cooridinates (Count = 4)
vt 0 0
vt 1 0
vt 1 1
vt 0 1

# Normal
vn 0 0 -1

# Mesh description
g Level1_mesh_0036

# Faces
f 1/1/1 2/2/1 3/3/1 4/4/1
f 5/1/1 6/2/1 7/3/1 8/4/1
f 9/1/1 10/2/1 11/3/1 12/4/1
f 13/1/1 14/2/1 15/3/1 16/4/1

