# Tiled2Unity generated file. Do not modify by hand.
# Wavefront file for 'Level1_mesh_0047.obj'

# Vertices (Count = 72)
v -287.85 -111.1 0
v -292.9 -111.1 0
v -292.9 -106.05 0
v -287.85 -106.05 0
v -287.85 -116.15 0
v -292.9 -116.15 0
v -292.9 -111.1 0
v -287.85 -111.1 0
v -287.85 -121.2 0
v -292.9 -121.2 0
v -292.9 -116.15 0
v -287.85 -116.15 0
v -202 -161.6 0
v -207.05 -161.6 0
v -207.05 -156.55 0
v -202 -156.55 0
v -202 -166.65 0
v -207.05 -166.65 0
v -207.05 -161.6 0
v -202 -161.6 0
v -202 -171.7 0
v -207.05 -171.7 0
v -207.05 -166.65 0
v -202 -166.65 0
v -202 -176.75 0
v -207.05 -176.75 0
v -207.05 -171.7 0
v -202 -171.7 0
v -111.1 -181.8 0
v -116.15 -181.8 0
v -116.15 -176.75 0
v -111.1 -176.75 0
v -202 -181.8 0
v -207.05 -181.8 0
v -207.05 -176.75 0
v -202 -176.75 0
v -111.1 -186.85 0
v -116.15 -186.85 0
v -116.15 -181.8 0
v -111.1 -181.8 0
v -202 -186.85 0
v -207.05 -186.85 0
v -207.05 -181.8 0
v -202 -181.8 0
v -202 -191.9 0
v -207.05 -191.9 0
v -207.05 -186.85 0
v -202 -186.85 0
v -202 -196.95 0
v -207.05 -196.95 0
v -207.05 -191.9 0
v -202 -191.9 0
v -202 -202 0
v -207.05 -202 0
v -207.05 -196.95 0
v -202 -196.95 0
v -202 -207.05 0
v -207.05 -207.05 0
v -207.05 -202 0
v -202 -202 0
v -202 -212.1 0
v -207.05 -212.1 0
v -207.05 -207.05 0
v -202 -207.05 0
v -202 -217.15 0
v -207.05 -217.15 0
v -207.05 -212.1 0
v -202 -212.1 0
v -202 -222.2 0
v -207.05 -222.2 0
v -207.05 -217.15 0
v -202 -217.15 0

# Texture cooridinates (Count = 4)
vt 0 0
vt 1 0
vt 1 1
vt 0 1

# Normal
vn 0 0 -1

# Mesh description
g Level1_mesh_0047

# Faces
f 1/1/1 2/2/1 3/3/1 4/4/1
f 5/1/1 6/2/1 7/3/1 8/4/1
f 9/1/1 10/2/1 11/3/1 12/4/1
f 13/1/1 14/2/1 15/3/1 16/4/1
f 17/1/1 18/2/1 19/3/1 20/4/1
f 21/1/1 22/2/1 23/3/1 24/4/1
f 25/1/1 26/2/1 27/3/1 28/4/1
f 29/1/1 30/2/1 31/3/1 32/4/1
f 33/1/1 34/2/1 35/3/1 36/4/1
f 37/1/1 38/2/1 39/3/1 40/4/1
f 41/1/1 42/2/1 43/3/1 44/4/1
f 45/1/1 46/2/1 47/3/1 48/4/1
f 49/1/1 50/2/1 51/3/1 52/4/1
f 53/1/1 54/2/1 55/3/1 56/4/1
f 57/1/1 58/2/1 59/3/1 60/4/1
f 61/1/1 62/2/1 63/3/1 64/4/1
f 65/1/1 66/2/1 67/3/1 68/4/1
f 69/1/1 70/2/1 71/3/1 72/4/1

