# Tiled2Unity generated file. Do not modify by hand.
# Wavefront file for 'Level1_mesh_0058.obj'

# Vertices (Count = 12)
v -65.65 -50.5 0
v -70.91 -50.5 0
v -70.91 -44.19 0
v -65.65 -44.19 0
v -409.05 -136.35 0
v -414.31 -136.35 0
v -414.31 -130.04 0
v -409.05 -130.04 0
v -338.35 -252.5 0
v -343.61 -252.5 0
v -343.61 -246.19 0
v -338.35 -246.19 0

# Texture cooridinates (Count = 4)
vt 0 0
vt 1 0
vt 1 1
vt 0 1

# Normal
vn 0 0 -1

# Mesh description
g Level1_mesh_0058

# Faces
f 1/1/1 2/2/1 3/3/1 4/4/1
f 5/1/1 6/2/1 7/3/1 8/4/1
f 9/1/1 10/2/1 11/3/1 12/4/1

