# Tiled2Unity generated file. Do not modify by hand.
# Wavefront file for 'Level1_mesh_0103.obj'

# Vertices (Count = 140)
v -272.7 -35.35 0
v -280.59 -35.35 0
v -280.59 -30.3 0
v -272.7 -30.3 0
v -277.75 -35.35 0
v -285.64 -35.35 0
v -285.64 -30.3 0
v -277.75 -30.3 0
v -353.5 -50.5 0
v -361.39 -50.5 0
v -361.39 -45.45 0
v -353.5 -45.45 0
v -202 -60.6 0
v -209.89 -60.6 0
v -209.89 -55.55 0
v -202 -55.55 0
v -242.4 -60.6 0
v -250.29 -60.6 0
v -250.29 -55.55 0
v -242.4 -55.55 0
v -267.65 -60.6 0
v -275.54 -60.6 0
v -275.54 -55.55 0
v -267.65 -55.55 0
v -464.6 -65.65 0
v -472.49 -65.65 0
v -472.49 -60.6 0
v -464.6 -60.6 0
v -494.9 -65.65 0
v -502.79 -65.65 0
v -502.79 -60.6 0
v -494.9 -60.6 0
v -35.35 -85.85 0
v -43.24 -85.85 0
v -43.24 -80.8 0
v -35.35 -80.8 0
v -65.65 -85.85 0
v -73.54 -85.85 0
v -73.54 -80.8 0
v -65.65 -80.8 0
v -479.75 -85.85 0
v -487.64 -85.85 0
v -487.64 -80.8 0
v -479.75 -80.8 0
v -207.05 -90.9 0
v -214.94 -90.9 0
v -214.94 -85.85 0
v -207.05 -85.85 0
v -328.25 -95.95 0
v -336.14 -95.95 0
v -336.14 -90.9 0
v -328.25 -90.9 0
v -398.95 -106.05 0
v -406.84 -106.05 0
v -406.84 -101 0
v -398.95 -101 0
v -277.75 -111.1 0
v -285.64 -111.1 0
v -285.64 -106.05 0
v -277.75 -106.05 0
v -414.1 -126.25 0
v -421.99 -126.25 0
v -421.99 -121.2 0
v -414.1 -121.2 0
v -469.65 -126.25 0
v -477.54 -126.25 0
v -477.54 -121.2 0
v -469.65 -121.2 0
v -65.65 -136.35 0
v -73.54 -136.35 0
v -73.54 -131.3 0
v -65.65 -131.3 0
v -146.45 -146.45 0
v -154.34 -146.45 0
v -154.34 -141.4 0
v -146.45 -141.4 0
v -459.55 -151.5 0
v -467.44 -151.5 0
v -467.44 -146.45 0
v -459.55 -146.45 0
v -494.9 -151.5 0
v -502.79 -151.5 0
v -502.79 -146.45 0
v -494.9 -146.45 0
v -75.75 -176.75 0
v -83.64 -176.75 0
v -83.64 -171.7 0
v -75.75 -171.7 0
v -202 -176.75 0
v -209.89 -176.75 0
v -209.89 -171.7 0
v -202 -171.7 0
v -111.1 -196.95 0
v -118.99 -196.95 0
v -118.99 -191.9 0
v -111.1 -191.9 0
v -136.35 -196.95 0
v -144.24 -196.95 0
v -144.24 -191.9 0
v -136.35 -191.9 0
v -217.15 -196.95 0
v -225.04 -196.95 0
v -225.04 -191.9 0
v -217.15 -191.9 0
v -272.7 -212.1 0
v -280.59 -212.1 0
v -280.59 -207.05 0
v -272.7 -207.05 0
v -479.75 -227.25 0
v -487.64 -227.25 0
v -487.64 -222.2 0
v -479.75 -222.2 0
v -282.8 -232.3 0
v -290.69 -232.3 0
v -290.69 -227.25 0
v -282.8 -227.25 0
v -161.6 -237.35 0
v -169.49 -237.35 0
v -169.49 -232.3 0
v -161.6 -232.3 0
v -181.8 -237.35 0
v -189.69 -237.35 0
v -189.69 -232.3 0
v -181.8 -232.3 0
v -207.05 -237.35 0
v -214.94 -237.35 0
v -214.94 -232.3 0
v -207.05 -232.3 0
v -292.9 -242.4 0
v -300.79 -242.4 0
v -300.79 -237.35 0
v -292.9 -237.35 0
v -50.5 -257.55 0
v -58.39 -257.55 0
v -58.39 -252.5 0
v -50.5 -252.5 0
v -494.9 -282.8 0
v -502.79 -282.8 0
v -502.79 -277.75 0
v -494.9 -277.75 0

# Texture cooridinates (Count = 4)
vt 0 0
vt 1 0
vt 1 1
vt 0 1

# Normal
vn 0 0 -1

# Mesh description
g Level1_mesh_0103

# Faces
f 1/1/1 2/2/1 3/3/1 4/4/1
f 5/1/1 6/2/1 7/3/1 8/4/1
f 9/1/1 10/2/1 11/3/1 12/4/1
f 13/1/1 14/2/1 15/3/1 16/4/1
f 17/1/1 18/2/1 19/3/1 20/4/1
f 21/1/1 22/2/1 23/3/1 24/4/1
f 25/1/1 26/2/1 27/3/1 28/4/1
f 29/1/1 30/2/1 31/3/1 32/4/1
f 33/1/1 34/2/1 35/3/1 36/4/1
f 37/1/1 38/2/1 39/3/1 40/4/1
f 41/1/1 42/2/1 43/3/1 44/4/1
f 45/1/1 46/2/1 47/3/1 48/4/1
f 49/1/1 50/2/1 51/3/1 52/4/1
f 53/1/1 54/2/1 55/3/1 56/4/1
f 57/1/1 58/2/1 59/3/1 60/4/1
f 61/1/1 62/2/1 63/3/1 64/4/1
f 65/1/1 66/2/1 67/3/1 68/4/1
f 69/1/1 70/2/1 71/3/1 72/4/1
f 73/1/1 74/2/1 75/3/1 76/4/1
f 77/1/1 78/2/1 79/3/1 80/4/1
f 81/1/1 82/2/1 83/3/1 84/4/1
f 85/1/1 86/2/1 87/3/1 88/4/1
f 89/1/1 90/2/1 91/3/1 92/4/1
f 93/1/1 94/2/1 95/3/1 96/4/1
f 97/1/1 98/2/1 99/3/1 100/4/1
f 101/1/1 102/2/1 103/3/1 104/4/1
f 105/1/1 106/2/1 107/3/1 108/4/1
f 109/1/1 110/2/1 111/3/1 112/4/1
f 113/1/1 114/2/1 115/3/1 116/4/1
f 117/1/1 118/2/1 119/3/1 120/4/1
f 121/1/1 122/2/1 123/3/1 124/4/1
f 125/1/1 126/2/1 127/3/1 128/4/1
f 129/1/1 130/2/1 131/3/1 132/4/1
f 133/1/1 134/2/1 135/3/1 136/4/1
f 137/1/1 138/2/1 139/3/1 140/4/1

