# Tiled2Unity generated file. Do not modify by hand.
# Wavefront file for 'Level1_mesh_0003.obj'

# Vertices (Count = 40)
v -75.75 -35.35 0
v -80.8 -35.35 0
v -80.8 -28.54 0
v -75.75 -28.54 0
v -80.8 -35.35 0
v -85.85 -35.35 0
v -85.85 -28.54 0
v -80.8 -28.54 0
v -85.85 -35.35 0
v -90.9 -35.35 0
v -90.9 -28.54 0
v -85.85 -28.54 0
v -90.9 -35.35 0
v -95.95 -35.35 0
v -95.95 -28.54 0
v -90.9 -28.54 0
v -95.95 -35.35 0
v -101 -35.35 0
v -101 -28.54 0
v -95.95 -28.54 0
v -101 -35.35 0
v -106.05 -35.35 0
v -106.05 -28.54 0
v -101 -28.54 0
v -106.05 -35.35 0
v -111.1 -35.35 0
v -111.1 -28.54 0
v -106.05 -28.54 0
v -111.1 -35.35 0
v -116.15 -35.35 0
v -116.15 -28.54 0
v -111.1 -28.54 0
v -116.15 -35.35 0
v -121.2 -35.35 0
v -121.2 -28.54 0
v -116.15 -28.54 0
v -121.2 -35.35 0
v -126.25 -35.35 0
v -126.25 -28.54 0
v -121.2 -28.54 0

# Texture cooridinates (Count = 4)
vt 0 0
vt 1 0
vt 1 1
vt 0 1

# Normal
vn 0 0 -1

# Mesh description
g Level1_mesh_0003

# Faces
f 1/1/1 2/2/1 3/3/1 4/4/1
f 5/1/1 6/2/1 7/3/1 8/4/1
f 9/1/1 10/2/1 11/3/1 12/4/1
f 13/1/1 14/2/1 15/3/1 16/4/1
f 17/1/1 18/2/1 19/3/1 20/4/1
f 21/1/1 22/2/1 23/3/1 24/4/1
f 25/1/1 26/2/1 27/3/1 28/4/1
f 29/1/1 30/2/1 31/3/1 32/4/1
f 33/1/1 34/2/1 35/3/1 36/4/1
f 37/1/1 38/2/1 39/3/1 40/4/1

