# Tiled2Unity generated file. Do not modify by hand.
# Wavefront file for 'Level1_mesh_0007.obj'

# Vertices (Count = 12)
v -126.25 -40.4 0
v -131.3 -40.4 0
v -131.3 -35.35 0
v -126.25 -35.35 0
v -126.25 -45.45 0
v -131.3 -45.45 0
v -131.3 -40.4 0
v -126.25 -40.4 0
v -126.25 -50.5 0
v -131.3 -50.5 0
v -131.3 -45.45 0
v -126.25 -45.45 0

# Texture cooridinates (Count = 4)
vt 0 0
vt 1 0
vt 1 1
vt 0 1

# Normal
vn 0 0 -1

# Mesh description
g Level1_mesh_0007

# Faces
f 1/1/1 2/2/1 3/3/1 4/4/1
f 5/1/1 6/2/1 7/3/1 8/4/1
f 9/1/1 10/2/1 11/3/1 12/4/1

