# Tiled2Unity generated file. Do not modify by hand.
# Wavefront file for 'Level1_mesh_0063.obj'

# Vertices (Count = 20)
v -313.1 -15.15 0
v -318.36 -15.15 0
v -318.36 -8.84 0
v -313.1 -8.84 0
v -25.25 -75.75 0
v -30.51 -75.75 0
v -30.51 -69.43999 0
v -25.25 -69.43999 0
v -429.25 -75.75 0
v -434.51 -75.75 0
v -434.51 -69.43999 0
v -429.25 -69.43999 0
v -444.4 -176.75 0
v -449.66 -176.75 0
v -449.66 -170.44 0
v -444.4 -170.44 0
v -247.45 -272.7 0
v -252.71 -272.7 0
v -252.71 -266.39 0
v -247.45 -266.39 0

# Texture cooridinates (Count = 4)
vt 0 0
vt 1 0
vt 1 1
vt 0 1

# Normal
vn 0 0 -1

# Mesh description
g Level1_mesh_0063

# Faces
f 1/1/1 2/2/1 3/3/1 4/4/1
f 5/1/1 6/2/1 7/3/1 8/4/1
f 9/1/1 10/2/1 11/3/1 12/4/1
f 13/1/1 14/2/1 15/3/1 16/4/1
f 17/1/1 18/2/1 19/3/1 20/4/1

