# Tiled2Unity generated file. Do not modify by hand.
# Wavefront file for 'Level1_mesh_0020.obj'

# Vertices (Count = 24)
v -393.9 -30.3 0
v -398.95 -30.3 0
v -398.95 -23.49 0
v -393.9 -23.49 0
v -267.65 -45.45 0
v -272.7 -45.45 0
v -272.7 -38.64 0
v -267.65 -38.64 0
v -146.45 -85.85 0
v -151.5 -85.85 0
v -151.5 -79.04 0
v -146.45 -79.04 0
v -30.3 -106.05 0
v -35.35 -106.05 0
v -35.35 -99.24 0
v -30.3 -99.24 0
v -494.9 -212.1 0
v -499.95 -212.1 0
v -499.95 -205.29 0
v -494.9 -205.29 0
v -393.9 -247.45 0
v -398.95 -247.45 0
v -398.95 -240.64 0
v -393.9 -240.64 0

# Texture cooridinates (Count = 4)
vt 0 0
vt 1 0
vt 1 1
vt 0 1

# Normal
vn 0 0 -1

# Mesh description
g Level1_mesh_0020

# Faces
f 1/1/1 2/2/1 3/3/1 4/4/1
f 5/1/1 6/2/1 7/3/1 8/4/1
f 9/1/1 10/2/1 11/3/1 12/4/1
f 13/1/1 14/2/1 15/3/1 16/4/1
f 17/1/1 18/2/1 19/3/1 20/4/1
f 21/1/1 22/2/1 23/3/1 24/4/1

