# Tiled2Unity generated file. Do not modify by hand.
# Wavefront file for 'Level1_mesh_0025.obj'

# Vertices (Count = 16)
v -217.15 -45.45 0
v -222.2 -45.45 0
v -222.2 -38.64 0
v -217.15 -38.64 0
v -121.2 -85.85 0
v -126.25 -85.85 0
v -126.25 -79.04 0
v -121.2 -79.04 0
v 0 -106.05 0
v -5.05 -106.05 0
v -5.05 -99.24 0
v 0 -99.24 0
v -353.5 -247.45 0
v -358.55 -247.45 0
v -358.55 -240.64 0
v -353.5 -240.64 0

# Texture cooridinates (Count = 4)
vt 0 0
vt 1 0
vt 1 1
vt 0 1

# Normal
vn 0 0 -1

# Mesh description
g Level1_mesh_0025

# Faces
f 1/1/1 2/2/1 3/3/1 4/4/1
f 5/1/1 6/2/1 7/3/1 8/4/1
f 9/1/1 10/2/1 11/3/1 12/4/1
f 13/1/1 14/2/1 15/3/1 16/4/1

