# Tiled2Unity generated file. Do not modify by hand.
# Wavefront file for 'Level1_mesh_0067.obj'

# Vertices (Count = 12)
v -75.75 -50.5 0
v -105.75 -50.5 0
v -105.75 -19.42 0
v -75.75 -19.42 0
v -10.1 -166.65 0
v -40.1 -166.65 0
v -40.1 -135.57 0
v -10.1 -135.57 0
v -328.25 -252.5 0
v -358.25 -252.5 0
v -358.25 -221.42 0
v -328.25 -221.42 0

# Texture cooridinates (Count = 4)
vt 0 0
vt 1 0
vt 1 1
vt 0 1

# Normal
vn 0 0 -1

# Mesh description
g Level1_mesh_0067

# Faces
f 1/1/1 2/2/1 3/3/1 4/4/1
f 5/1/1 6/2/1 7/3/1 8/4/1
f 9/1/1 10/2/1 11/3/1 12/4/1

