# Tiled2Unity generated file. Do not modify by hand.
# Wavefront file for 'Level1_mesh_0034.obj'

# Vertices (Count = 12)
v -156.55 -35.35 0
v -161.6 -35.35 0
v -161.6 -28.54 0
v -156.55 -28.54 0
v -146.45 -156.55 0
v -151.5 -156.55 0
v -151.5 -149.74 0
v -146.45 -149.74 0
v -75.75 -176.75 0
v -80.8 -176.75 0
v -80.8 -169.94 0
v -75.75 -169.94 0

# Texture cooridinates (Count = 4)
vt 0 0
vt 1 0
vt 1 1
vt 0 1

# Normal
vn 0 0 -1

# Mesh description
g Level1_mesh_0034

# Faces
f 1/1/1 2/2/1 3/3/1 4/4/1
f 5/1/1 6/2/1 7/3/1 8/4/1
f 9/1/1 10/2/1 11/3/1 12/4/1

