# Tiled2Unity generated file. Do not modify by hand.
# Wavefront file for 'Level1_mesh_0035.obj'

# Vertices (Count = 84)
v -161.6 -35.35 0
v -166.65 -35.35 0
v -166.65 -28.54 0
v -161.6 -28.54 0
v -166.65 -35.35 0
v -171.7 -35.35 0
v -171.7 -28.54 0
v -166.65 -28.54 0
v -171.7 -35.35 0
v -176.75 -35.35 0
v -176.75 -28.54 0
v -171.7 -28.54 0
v -176.75 -35.35 0
v -181.8 -35.35 0
v -181.8 -28.54 0
v -176.75 -28.54 0
v -282.8 -106.05 0
v -287.85 -106.05 0
v -287.85 -99.24 0
v -282.8 -99.24 0
v -151.5 -156.55 0
v -156.55 -156.55 0
v -156.55 -149.74 0
v -151.5 -149.74 0
v -156.55 -156.55 0
v -161.6 -156.55 0
v -161.6 -149.74 0
v -156.55 -149.74 0
v -161.6 -156.55 0
v -166.65 -156.55 0
v -166.65 -149.74 0
v -161.6 -149.74 0
v -166.65 -156.55 0
v -171.7 -156.55 0
v -171.7 -149.74 0
v -166.65 -149.74 0
v -171.7 -156.55 0
v -176.75 -156.55 0
v -176.75 -149.74 0
v -171.7 -149.74 0
v -176.75 -156.55 0
v -181.8 -156.55 0
v -181.8 -149.74 0
v -176.75 -149.74 0
v -181.8 -156.55 0
v -186.85 -156.55 0
v -186.85 -149.74 0
v -181.8 -149.74 0
v -186.85 -156.55 0
v -191.9 -156.55 0
v -191.9 -149.74 0
v -186.85 -149.74 0
v -191.9 -156.55 0
v -196.95 -156.55 0
v -196.95 -149.74 0
v -191.9 -149.74 0
v -196.95 -156.55 0
v -202 -156.55 0
v -202 -149.74 0
v -196.95 -149.74 0
v -80.8 -176.75 0
v -85.85 -176.75 0
v -85.85 -169.94 0
v -80.8 -169.94 0
v -85.85 -176.75 0
v -90.9 -176.75 0
v -90.9 -169.94 0
v -85.85 -169.94 0
v -90.9 -176.75 0
v -95.95 -176.75 0
v -95.95 -169.94 0
v -90.9 -169.94 0
v -95.95 -176.75 0
v -101 -176.75 0
v -101 -169.94 0
v -95.95 -169.94 0
v -101 -176.75 0
v -106.05 -176.75 0
v -106.05 -169.94 0
v -101 -169.94 0
v -106.05 -176.75 0
v -111.1 -176.75 0
v -111.1 -169.94 0
v -106.05 -169.94 0

# Texture cooridinates (Count = 4)
vt 0 0
vt 1 0
vt 1 1
vt 0 1

# Normal
vn 0 0 -1

# Mesh description
g Level1_mesh_0035

# Faces
f 1/1/1 2/2/1 3/3/1 4/4/1
f 5/1/1 6/2/1 7/3/1 8/4/1
f 9/1/1 10/2/1 11/3/1 12/4/1
f 13/1/1 14/2/1 15/3/1 16/4/1
f 17/1/1 18/2/1 19/3/1 20/4/1
f 21/1/1 22/2/1 23/3/1 24/4/1
f 25/1/1 26/2/1 27/3/1 28/4/1
f 29/1/1 30/2/1 31/3/1 32/4/1
f 33/1/1 34/2/1 35/3/1 36/4/1
f 37/1/1 38/2/1 39/3/1 40/4/1
f 41/1/1 42/2/1 43/3/1 44/4/1
f 45/1/1 46/2/1 47/3/1 48/4/1
f 49/1/1 50/2/1 51/3/1 52/4/1
f 53/1/1 54/2/1 55/3/1 56/4/1
f 57/1/1 58/2/1 59/3/1 60/4/1
f 61/1/1 62/2/1 63/3/1 64/4/1
f 65/1/1 66/2/1 67/3/1 68/4/1
f 69/1/1 70/2/1 71/3/1 72/4/1
f 73/1/1 74/2/1 75/3/1 76/4/1
f 77/1/1 78/2/1 79/3/1 80/4/1
f 81/1/1 82/2/1 83/3/1 84/4/1

