# Tiled2Unity generated file. Do not modify by hand.
# Wavefront file for 'Level1_mesh_0097.obj'

# Vertices (Count = 172)
v -499.95 -5.05 0
v -505 -5.05 0
v -505 1.76 0
v -499.95 1.76 0
v -297.95 -20.2 0
v -303 -20.2 0
v -303 -13.39 0
v -297.95 -13.39 0
v -444.4 -25.25 0
v -449.45 -25.25 0
v -449.45 -18.44 0
v -444.4 -18.44 0
v -479.75 -25.25 0
v -484.8 -25.25 0
v -484.8 -18.44 0
v -479.75 -18.44 0
v -227.25 -30.3 0
v -232.3 -30.3 0
v -232.3 -23.49 0
v -227.25 -23.49 0
v -429.25 -30.3 0
v -434.3 -30.3 0
v -434.3 -23.49 0
v -429.25 -23.49 0
v -424.2 -35.35 0
v -429.25 -35.35 0
v -429.25 -28.54 0
v -424.2 -28.54 0
v -146.45 -40.4 0
v -151.5 -40.4 0
v -151.5 -33.59 0
v -146.45 -33.59 0
v -419.15 -40.4 0
v -424.2 -40.4 0
v -424.2 -33.59 0
v -419.15 -33.59 0
v -141.4 -45.45 0
v -146.45 -45.45 0
v -146.45 -38.64 0
v -141.4 -38.64 0
v -414.1 -45.45 0
v -419.15 -45.45 0
v -419.15 -38.64 0
v -414.1 -38.64 0
v -136.35 -50.5 0
v -141.4 -50.5 0
v -141.4 -43.69 0
v -136.35 -43.69 0
v -409.05 -50.5 0
v -414.1 -50.5 0
v -414.1 -43.69 0
v -409.05 -43.69 0
v -404 -55.55 0
v -409.05 -55.55 0
v -409.05 -48.74 0
v -404 -48.74 0
v -398.95 -60.6 0
v -404 -60.6 0
v -404 -53.79 0
v -398.95 -53.79 0
v -348.45 -65.65 0
v -353.5 -65.65 0
v -353.5 -58.84 0
v -348.45 -58.84 0
v -50.5 -80.8 0
v -55.55 -80.8 0
v -55.55 -73.99 0
v -50.5 -73.99 0
v -161.6 -80.8 0
v -166.65 -80.8 0
v -166.65 -73.99 0
v -161.6 -73.99 0
v -106.05 -106.05 0
v -111.1 -106.05 0
v -111.1 -99.24 0
v -106.05 -99.24 0
v -161.6 -106.05 0
v -166.65 -106.05 0
v -166.65 -99.24 0
v -161.6 -99.24 0
v -434.3 -106.05 0
v -439.35 -106.05 0
v -439.35 -99.24 0
v -434.3 -99.24 0
v -429.25 -111.1 0
v -434.3 -111.1 0
v -434.3 -104.29 0
v -429.25 -104.29 0
v -424.2 -116.15 0
v -429.25 -116.15 0
v -429.25 -109.34 0
v -424.2 -109.34 0
v -303 -121.2 0
v -308.05 -121.2 0
v -308.05 -114.39 0
v -303 -114.39 0
v -207.05 -126.25 0
v -212.1 -126.25 0
v -212.1 -119.44 0
v -207.05 -119.44 0
v -419.15 -181.8 0
v -424.2 -181.8 0
v -424.2 -174.99 0
v -419.15 -174.99 0
v -237.35 -186.85 0
v -242.4 -186.85 0
v -242.4 -180.04 0
v -237.35 -180.04 0
v -126.25 -191.9 0
v -131.3 -191.9 0
v -131.3 -185.09 0
v -126.25 -185.09 0
v -65.65 -227.25 0
v -70.7 -227.25 0
v -70.7 -220.44 0
v -65.65 -220.44 0
v -176.75 -227.25 0
v -181.8 -227.25 0
v -181.8 -220.44 0
v -176.75 -220.44 0
v -227.25 -227.25 0
v -232.3 -227.25 0
v -232.3 -220.44 0
v -227.25 -220.44 0
v -60.6 -232.3 0
v -65.65 -232.3 0
v -65.65 -225.49 0
v -60.6 -225.49 0
v -55.55 -237.35 0
v -60.6 -237.35 0
v -60.6 -230.54 0
v -55.55 -230.54 0
v -50.5 -242.4 0
v -55.55 -242.4 0
v -55.55 -235.59 0
v -50.5 -235.59 0
v -45.45 -247.45 0
v -50.5 -247.45 0
v -50.5 -240.64 0
v -45.45 -240.64 0
v -40.4 -252.5 0
v -45.45 -252.5 0
v -45.45 -245.69 0
v -40.4 -245.69 0
v -166.65 -252.5 0
v -171.7 -252.5 0
v -171.7 -245.69 0
v -166.65 -245.69 0
v -161.6 -257.55 0
v -166.65 -257.55 0
v -166.65 -250.74 0
v -161.6 -250.74 0
v -277.75 -257.55 0
v -282.8 -257.55 0
v -282.8 -250.74 0
v -277.75 -250.74 0
v -90.9 -262.6 0
v -95.95 -262.6 0
v -95.95 -255.79 0
v -90.9 -255.79 0
v -272.7 -262.6 0
v -277.75 -262.6 0
v -277.75 -255.79 0
v -272.7 -255.79 0
v -267.65 -267.65 0
v -272.7 -267.65 0
v -272.7 -260.84 0
v -267.65 -260.84 0
v -262.6 -272.7 0
v -267.65 -272.7 0
v -267.65 -265.89 0
v -262.6 -265.89 0

# Texture cooridinates (Count = 4)
vt 0 0
vt 1 0
vt 1 1
vt 0 1

# Normal
vn 0 0 -1

# Mesh description
g Level1_mesh_0097

# Faces
f 1/1/1 2/2/1 3/3/1 4/4/1
f 5/1/1 6/2/1 7/3/1 8/4/1
f 9/1/1 10/2/1 11/3/1 12/4/1
f 13/1/1 14/2/1 15/3/1 16/4/1
f 17/1/1 18/2/1 19/3/1 20/4/1
f 21/1/1 22/2/1 23/3/1 24/4/1
f 25/1/1 26/2/1 27/3/1 28/4/1
f 29/1/1 30/2/1 31/3/1 32/4/1
f 33/1/1 34/2/1 35/3/1 36/4/1
f 37/1/1 38/2/1 39/3/1 40/4/1
f 41/1/1 42/2/1 43/3/1 44/4/1
f 45/1/1 46/2/1 47/3/1 48/4/1
f 49/1/1 50/2/1 51/3/1 52/4/1
f 53/1/1 54/2/1 55/3/1 56/4/1
f 57/1/1 58/2/1 59/3/1 60/4/1
f 61/1/1 62/2/1 63/3/1 64/4/1
f 65/1/1 66/2/1 67/3/1 68/4/1
f 69/1/1 70/2/1 71/3/1 72/4/1
f 73/1/1 74/2/1 75/3/1 76/4/1
f 77/1/1 78/2/1 79/3/1 80/4/1
f 81/1/1 82/2/1 83/3/1 84/4/1
f 85/1/1 86/2/1 87/3/1 88/4/1
f 89/1/1 90/2/1 91/3/1 92/4/1
f 93/1/1 94/2/1 95/3/1 96/4/1
f 97/1/1 98/2/1 99/3/1 100/4/1
f 101/1/1 102/2/1 103/3/1 104/4/1
f 105/1/1 106/2/1 107/3/1 108/4/1
f 109/1/1 110/2/1 111/3/1 112/4/1
f 113/1/1 114/2/1 115/3/1 116/4/1
f 117/1/1 118/2/1 119/3/1 120/4/1
f 121/1/1 122/2/1 123/3/1 124/4/1
f 125/1/1 126/2/1 127/3/1 128/4/1
f 129/1/1 130/2/1 131/3/1 132/4/1
f 133/1/1 134/2/1 135/3/1 136/4/1
f 137/1/1 138/2/1 139/3/1 140/4/1
f 141/1/1 142/2/1 143/3/1 144/4/1
f 145/1/1 146/2/1 147/3/1 148/4/1
f 149/1/1 150/2/1 151/3/1 152/4/1
f 153/1/1 154/2/1 155/3/1 156/4/1
f 157/1/1 158/2/1 159/3/1 160/4/1
f 161/1/1 162/2/1 163/3/1 164/4/1
f 165/1/1 166/2/1 167/3/1 168/4/1
f 169/1/1 170/2/1 171/3/1 172/4/1

