# Tiled2Unity generated file. Do not modify by hand.
# Wavefront file for 'Level1_mesh_0057.obj'

# Vertices (Count = 16)
v -85.85 -45.45 0
v -92.18999 -45.45 0
v -92.18999 -42.38 0
v -85.85 -42.38 0
v -388.85 -55.55 0
v -395.19 -55.55 0
v -395.19 -52.48 0
v -388.85 -52.48 0
v -151.5 -212.1 0
v -157.84 -212.1 0
v -157.84 -209.03 0
v -151.5 -209.03 0
v -126.25 -217.15 0
v -132.59 -217.15 0
v -132.59 -214.08 0
v -126.25 -214.08 0

# Texture cooridinates (Count = 4)
vt 0 0
vt 1 0
vt 1 1
vt 0 1

# Normal
vn 0 0 -1

# Mesh description
g Level1_mesh_0057

# Faces
f 1/1/1 2/2/1 3/3/1 4/4/1
f 5/1/1 6/2/1 7/3/1 8/4/1
f 9/1/1 10/2/1 11/3/1 12/4/1
f 13/1/1 14/2/1 15/3/1 16/4/1

