# Tiled2Unity generated file. Do not modify by hand.
# Wavefront file for 'Level1_mesh_0080.obj'

# Vertices (Count = 24)
v -176.75 -35.35 0
v -181.47 -35.35 0
v -181.47 -32.7 0
v -176.75 -32.7 0
v -20.2 -50.5 0
v -24.92 -50.5 0
v -24.92 -47.85 0
v -20.2 -47.85 0
v -318.15 -116.15 0
v -322.87 -116.15 0
v -322.87 -113.5 0
v -318.15 -113.5 0
v -242.4 -121.2 0
v -247.12 -121.2 0
v -247.12 -118.55 0
v -242.4 -118.55 0
v -106.05 -222.2 0
v -110.77 -222.2 0
v -110.77 -219.55 0
v -106.05 -219.55 0
v -186.85 -222.2 0
v -191.57 -222.2 0
v -191.57 -219.55 0
v -186.85 -219.55 0

# Texture cooridinates (Count = 4)
vt 0 0
vt 1 0
vt 1 1
vt 0 1

# Normal
vn 0 0 -1

# Mesh description
g Level1_mesh_0080

# Faces
f 1/1/1 2/2/1 3/3/1 4/4/1
f 5/1/1 6/2/1 7/3/1 8/4/1
f 9/1/1 10/2/1 11/3/1 12/4/1
f 13/1/1 14/2/1 15/3/1 16/4/1
f 17/1/1 18/2/1 19/3/1 20/4/1
f 21/1/1 22/2/1 23/3/1 24/4/1

